HIERARCHY
ROOT Hips
{
  OFFSET 0.000000 95.000000 0.000000
  CHANNELS 6 Xposition Yposition Zposition Zrotation Xrotation Yrotation
  JOINT Spine
  {
    OFFSET 0.000000 10.000000 0.000000
    CHANNELS 3 Zrotation Xrotation Yrotation
    JOINT Spine1
    {
      OFFSET 0.000000 12.000000 0.000000
      CHANNELS 3 Zrotation Xrotation Yrotation
      JOINT Spine2
      {
        OFFSET 0.000000 12.000000 0.000000
        CHANNELS 3 Zrotation Xrotation Yrotation
        JOINT Neck
        {
          OFFSET 0.000000 10.000000 0.000000
          CHANNELS 3 Zrotation Xrotation Yrotation
          JOINT Head
          {
            OFFSET 0.000000 8.000000 0.000000
            CHANNELS 3 Zrotation Xrotation Yrotation
            End Site
            {
              OFFSET 0.000000 10.000000 0.000000
            }
          }
        }
        JOINT LeftShoulder
        {
          OFFSET 6.000000 8.000000 0.000000
          CHANNELS 3 Zrotation Xrotation Yrotation
          JOINT LeftArm
          {
            OFFSET 12.000000 0.000000 0.000000
            CHANNELS 3 Zrotation Xrotation Yrotation
            JOINT LeftForeArm
            {
              OFFSET 24.000000 0.000000 0.000000
              CHANNELS 3 Zrotation Xrotation Yrotation
              JOINT LeftHand
              {
                OFFSET 22.000000 0.000000 0.000000
                CHANNELS 3 Zrotation Xrotation Yrotation
                JOINT LeftHandThumb1
                {
                  OFFSET 1.800000 -1.400000 0.500000
                  CHANNELS 3 Zrotation Xrotation Yrotation
                  JOINT LeftHandThumb2
                  {
                    OFFSET 2.400000 0.000000 0.000000
                    CHANNELS 3 Zrotation Xrotation Yrotation
                    JOINT LeftHandThumb3
                    {
                      OFFSET 1.900000 0.000000 0.000000
                      CHANNELS 3 Zrotation Xrotation Yrotation
                      End Site
                      {
                        OFFSET 1.600000 0.000000 0.000000
                      }
                    }
                  }
                }
                JOINT LeftHandIndex1
                {
                  OFFSET 6.600000 1.200000 0.300000
                  CHANNELS 3 Zrotation Xrotation Yrotation
                  JOINT LeftHandIndex2
                  {
                    OFFSET 2.000000 0.000000 0.000000
                    CHANNELS 3 Zrotation Xrotation Yrotation
                    JOINT LeftHandIndex3
                    {
                      OFFSET 1.200000 0.000000 0.000000
                      CHANNELS 3 Zrotation Xrotation Yrotation
                      End Site
                      {
                        OFFSET 1.000000 0.000000 0.000000
                      }
                    }
                  }
                }
                JOINT LeftHandMiddle1
                {
                  OFFSET 7.200000 0.000000 0.300000
                  CHANNELS 3 Zrotation Xrotation Yrotation
                  JOINT LeftHandMiddle2
                  {
                    OFFSET 3.000000 0.000000 0.000000
                    CHANNELS 3 Zrotation Xrotation Yrotation
                    JOINT LeftHandMiddle3
                    {
                      OFFSET 2.000000 0.000000 0.000000
                      CHANNELS 3 Zrotation Xrotation Yrotation
                      End Site
                      {
                        OFFSET 1.600000 0.000000 0.000000
                      }
                    }
                  }
                }
                JOINT LeftHandRing1
                {
                  OFFSET 7.100000 -1.000000 0.400000
                  CHANNELS 3 Zrotation Xrotation Yrotation
                  JOINT LeftHandRing2
                  {
                    OFFSET 2.600000 0.000000 0.000000
                    CHANNELS 3 Zrotation Xrotation Yrotation
                    JOINT LeftHandRing3
                    {
                      OFFSET 1.600000 0.000000 0.000000
                      CHANNELS 3 Zrotation Xrotation Yrotation
                      End Site
                      {
                        OFFSET 1.300000 0.000000 0.000000
                      }
                    }
                  }
                }
                JOINT LeftHandPinky1
                {
                  OFFSET 6.500000 -2.000000 0.500000
                  CHANNELS 3 Zrotation Xrotation Yrotation
                  JOINT LeftHandPinky2
                  {
                    OFFSET 1.900000 0.000000 0.000000
                    CHANNELS 3 Zrotation Xrotation Yrotation
                    JOINT LeftHandPinky3
                    {
                      OFFSET 1.400000 0.000000 0.000000
                      CHANNELS 3 Zrotation Xrotation Yrotation
                      End Site
                      {
                        OFFSET 1.300000 0.000000 0.000000
                      }
                    }
                  }
                }
              }
            }
          }
        }
        JOINT RightShoulder
        {
          OFFSET -6.000000 8.000000 0.000000
          CHANNELS 3 Zrotation Xrotation Yrotation
          JOINT RightArm
          {
            OFFSET -12.000000 0.000000 0.000000
            CHANNELS 3 Zrotation Xrotation Yrotation
            JOINT RightForeArm
            {
              OFFSET -24.000000 0.000000 0.000000
              CHANNELS 3 Zrotation Xrotation Yrotation
              JOINT RightHand
              {
                OFFSET -22.000000 0.000000 0.000000
                CHANNELS 3 Zrotation Xrotation Yrotation
                JOINT RightHandThumb1
                {
                  OFFSET -1.800000 -1.400000 0.500000
                  CHANNELS 3 Zrotation Xrotation Yrotation
                  JOINT RightHandThumb2
                  {
                    OFFSET -2.400000 0.000000 0.000000
                    CHANNELS 3 Zrotation Xrotation Yrotation
                    JOINT RightHandThumb3
                    {
                      OFFSET -1.900000 0.000000 0.000000
                      CHANNELS 3 Zrotation Xrotation Yrotation
                      End Site
                      {
                        OFFSET -1.600000 0.000000 0.000000
                      }
                    }
                  }
                }
                JOINT RightHandIndex1
                {
                  OFFSET -6.600000 1.200000 0.300000
                  CHANNELS 3 Zrotation Xrotation Yrotation
                  JOINT RightHandIndex2
                  {
                    OFFSET -2.000000 0.000000 0.000000
                    CHANNELS 3 Zrotation Xrotation Yrotation
                    JOINT RightHandIndex3
                    {
                      OFFSET -1.200000 0.000000 0.000000
                      CHANNELS 3 Zrotation Xrotation Yrotation
                      End Site
                      {
                        OFFSET -1.000000 0.000000 0.000000
                      }
                    }
                  }
                }
                JOINT RightHandMiddle1
                {
                  OFFSET -7.200000 0.000000 0.300000
                  CHANNELS 3 Zrotation Xrotation Yrotation
                  JOINT RightHandMiddle2
                  {
                    OFFSET -3.000000 0.000000 0.000000
                    CHANNELS 3 Zrotation Xrotation Yrotation
                    JOINT RightHandMiddle3
                    {
                      OFFSET -2.000000 0.000000 0.000000
                      CHANNELS 3 Zrotation Xrotation Yrotation
                      End Site
                      {
                        OFFSET -1.600000 0.000000 0.000000
                      }
                    }
                  }
                }
                JOINT RightHandRing1
                {
                  OFFSET -7.100000 -1.000000 0.400000
                  CHANNELS 3 Zrotation Xrotation Yrotation
                  JOINT RightHandRing2
                  {
                    OFFSET -2.600000 0.000000 0.000000
                    CHANNELS 3 Zrotation Xrotation Yrotation
                    JOINT RightHandRing3
                    {
                      OFFSET -1.600000 0.000000 0.000000
                      CHANNELS 3 Zrotation Xrotation Yrotation
                      End Site
                      {
                        OFFSET -1.300000 0.000000 0.000000
                      }
                    }
                  }
                }
                JOINT RightHandPinky1
                {
                  OFFSET -6.500000 -2.000000 0.500000
                  CHANNELS 3 Zrotation Xrotation Yrotation
                  JOINT RightHandPinky2
                  {
                    OFFSET -1.900000 0.000000 0.000000
                    CHANNELS 3 Zrotation Xrotation Yrotation
                    JOINT RightHandPinky3
                    {
                      OFFSET -1.400000 0.000000 0.000000
                      CHANNELS 3 Zrotation Xrotation Yrotation
                      End Site
                      {
                        OFFSET -1.300000 0.000000 0.000000
                      }
                    }
                  }
                }
              }
            }
          }
        }
      }
    }
  }
  JOINT LeftUpLeg
  {
    OFFSET 10.000000 -5.000000 0.000000
    CHANNELS 3 Zrotation Xrotation Yrotation
    JOINT LeftLeg
    {
      OFFSET 0.000000 -42.000000 0.000000
      CHANNELS 3 Zrotation Xrotation Yrotation
      JOINT LeftFoot
      {
        OFFSET 0.000000 -42.000000 4.000000
        CHANNELS 3 Zrotation Xrotation Yrotation
        End Site
        {
          OFFSET 0.000000 0.000000 12.000000
        }
      }
    }
  }
  JOINT RightUpLeg
  {
    OFFSET -10.000000 -5.000000 0.000000
    CHANNELS 3 Zrotation Xrotation Yrotation
    JOINT RightLeg
    {
      OFFSET 0.000000 -42.000000 0.000000
      CHANNELS 3 Zrotation Xrotation Yrotation
      JOINT RightFoot
      {
        OFFSET 0.000000 -42.000000 4.000000
        CHANNELS 3 Zrotation Xrotation Yrotation
        End Site
        {
          OFFSET 0.000000 0.000000 12.000000
        }
      }
    }
  }
}
MOTION
Frames: 10
Frame Time: 0.033333
0.0000 95.0000 0.0000 0.0000 0.0000 0.0000 0.0000 0.0000 0.0000 0.0000 0.0000 0.0000 0.0000 0.0000 0.0000 0.0000 0.0000 0.0000 0.0000 0.0000 0.0000 0.0000 0.0000 0.0000 -79.7787 7.3895 8.8358 -2.5905 -2.2359 3.1781 -166.3541 37.9993 -179.9912 40.8243 -6.4292 9.0743 6.2222 0.0000 0.0000 3.1262 0.0000 0.0000 -6.0841 -0.2519 4.1231 3.7899 0.0000 0.0000 1.1541 0.0000 0.0000 5.4125 -0.3443 2.5024 4.0233 0.0000 0.0000 1.7998 0.0000 0.0000 13.4675 -0.6960 2.4385 2.0686 0.0000 0.0000 2.1041 0.0000 0.0000 21.9213 -1.3120 2.8000 1.6999 0.0000 0.0000 1.2173 0.0000 0.0000 0.0000 0.0000 0.0000 88.4351 -1.1959 1.2290 -3.2717 9.7770 9.4047 169.2508 14.1398 171.9155 -55.0509 -10.1635 -9.7527 15.7189 0.0000 0.0000 1.7332 0.0000 0.0000 0.6106 -1.1817 -6.8335 6.7966 0.0000 0.0000 1.5110 0.0000 0.0000 -10.9257 -0.8019 -3.5982 7.6948 0.0000 0.0000 1.0028 0.0000 0.0000 -18.6108 -1.1552 -5.2585 10.4931 0.0000 0.0000 2.3692 0.0000 0.0000 -25.9734 -1.4683 -6.0451 10.0600 0.0000 0.0000 3.9365 0.0000 0.0000 0.0000 0.0000 0.0000 0.0000 0.0000 0.0000 0.0000 0.0000 0.0000 0.0000 0.0000 0.0000 0.0000 0.0000 0.0000 0.0000 0.0000 0.0000
0.0000 95.0000 0.0000 0.0000 0.0000 0.0000 0.0000 0.0000 0.0000 0.0000 0.0000 0.0000 0.0000 0.0000 0.0000 0.0000 0.0000 0.0000 0.0000 0.0000 0.0000 0.0000 0.0000 0.0000 -80.1929 7.2794 8.6408 -2.5748 -2.1549 3.0470 -166.8296 38.2837 -180.0391 40.8243 -6.4292 9.0743 6.2222 0.0000 0.0000 3.1262 0.0000 0.0000 -6.0841 -0.2519 4.1231 3.7899 0.0000 0.0000 1.1541 0.0000 0.0000 5.4125 -0.3443 2.5024 4.0233 0.0000 0.0000 1.7998 0.0000 0.0000 13.4675 -0.6960 2.4385 2.0686 0.0000 0.0000 2.1041 0.0000 0.0000 21.9213 -1.3120 2.8000 1.6999 0.0000 0.0000 1.2173 0.0000 0.0000 0.0000 0.0000 0.0000 88.3688 -1.2663 1.3028 -3.3564 9.5568 9.1817 169.1563 13.9961 172.0575 -55.0509 -10.1635 -9.7527 15.7189 0.0000 0.0000 1.7332 0.0000 0.0000 0.6106 -1.1817 -6.8335 6.7966 0.0000 0.0000 1.5110 0.0000 0.0000 -10.9257 -0.8019 -3.5982 7.6948 0.0000 0.0000 1.0028 0.0000 0.0000 -18.6108 -1.1552 -5.2585 10.4931 0.0000 0.0000 2.3692 0.0000 0.0000 -25.9734 -1.4683 -6.0451 10.0600 0.0000 0.0000 3.9365 0.0000 0.0000 0.0000 0.0000 0.0000 0.0000 0.0000 0.0000 0.0000 0.0000 0.0000 0.0000 0.0000 0.0000 0.0000 0.0000 0.0000 0.0000 0.0000 0.0000
0.0000 95.0000 0.0000 0.0000 0.0000 0.0000 0.0000 0.0000 0.0000 0.0000 0.0000 0.0000 0.0000 0.0000 0.0000 0.0000 0.0000 0.0000 0.0000 0.0000 0.0000 0.0000 0.0000 0.0000 -79.4606 7.3728 8.8656 -3.5689 -2.2747 3.4566 -167.1853 37.8925 -180.7521 40.8243 -6.4292 9.0743 6.2222 0.0000 0.0000 3.1262 0.0000 0.0000 -6.0841 -0.2519 4.1231 3.7899 0.0000 0.0000 1.1541 0.0000 0.0000 5.4125 -0.3443 2.5024 4.0233 0.0000 0.0000 1.7998 0.0000 0.0000 13.4675 -0.6960 2.4385 2.0686 0.0000 0.0000 2.1041 0.0000 0.0000 21.9213 -1.3120 2.8000 1.6999 0.0000 0.0000 1.2173 0.0000 0.0000 0.0000 0.0000 0.0000 88.0241 -1.3604 1.4081 -2.8425 9.2166 8.9912 169.3971 13.8494 172.2697 -55.0509 -10.1635 -9.7527 15.7189 0.0000 0.0000 1.7332 0.0000 0.0000 0.6106 -1.1817 -6.8335 6.7966 0.0000 0.0000 1.5110 0.0000 0.0000 -10.9257 -0.8019 -3.5982 7.6948 0.0000 0.0000 1.0028 0.0000 0.0000 -18.6108 -1.1552 -5.2585 10.4931 0.0000 0.0000 2.3692 0.0000 0.0000 -25.9734 -1.4683 -6.0451 10.0600 0.0000 0.0000 3.9365 0.0000 0.0000 0.0000 0.0000 0.0000 0.0000 0.0000 0.0000 0.0000 0.0000 0.0000 0.0000 0.0000 0.0000 0.0000 0.0000 0.0000 0.0000 0.0000 0.0000
0.0000 95.0000 0.0000 0.0000 0.0000 0.0000 0.0000 0.0000 0.0000 0.0000 0.0000 0.0000 0.0000 0.0000 0.0000 0.0000 0.0000 0.0000 0.0000 0.0000 0.0000 0.0000 0.0000 0.0000 -79.0728 7.6937 9.3146 -4.0503 -2.2451 3.5764 -167.3732 37.4894 -181.3470 40.8243 -6.4292 9.0743 6.2222 0.0000 0.0000 3.1262 0.0000 0.0000 -6.0841 -0.2519 4.1231 3.7899 0.0000 0.0000 1.1541 0.0000 0.0000 5.4125 -0.3443 2.5024 4.0233 0.0000 0.0000 1.7998 0.0000 0.0000 13.4675 -0.6960 2.4385 2.0686 0.0000 0.0000 2.1041 0.0000 0.0000 21.9213 -1.3120 2.8000 1.6999 0.0000 0.0000 1.2173 0.0000 0.0000 0.0000 0.0000 0.0000 87.8908 -1.2924 1.3409 -2.8018 8.9683 8.7794 169.3772 13.5682 172.5802 -55.0509 -10.1635 -9.7527 15.7189 0.0000 0.0000 1.7332 0.0000 0.0000 0.6106 -1.1817 -6.8335 6.7966 0.0000 0.0000 1.5110 0.0000 0.0000 -10.9257 -0.8019 -3.5982 7.6948 0.0000 0.0000 1.0028 0.0000 0.0000 -18.6108 -1.1552 -5.2585 10.4931 0.0000 0.0000 2.3692 0.0000 0.0000 -25.9734 -1.4683 -6.0451 10.0600 0.0000 0.0000 3.9365 0.0000 0.0000 0.0000 0.0000 0.0000 0.0000 0.0000 0.0000 0.0000 0.0000 0.0000 0.0000 0.0000 0.0000 0.0000 0.0000 0.0000 0.0000 0.0000 0.0000
0.0000 95.0000 0.0000 0.0000 0.0000 0.0000 0.0000 0.0000 0.0000 0.0000 0.0000 0.0000 0.0000 0.0000 0.0000 0.0000 0.0000 0.0000 0.0000 0.0000 0.0000 0.0000 0.0000 0.0000 -79.0431 7.8368 9.4925 -4.2512 -2.3434 3.7628 -167.6030 37.2145 -181.8281 40.8243 -6.4292 9.0743 6.2222 0.0000 0.0000 3.1262 0.0000 0.0000 -6.0841 -0.2519 4.1231 3.7899 0.0000 0.0000 1.1541 0.0000 0.0000 5.4125 -0.3443 2.5024 4.0233 0.0000 0.0000 1.7998 0.0000 0.0000 13.4675 -0.6960 2.4385 2.0686 0.0000 0.0000 2.1041 0.0000 0.0000 21.9213 -1.3120 2.8000 1.6999 0.0000 0.0000 1.2173 0.0000 0.0000 0.0000 0.0000 0.0000 87.7160 -1.3232 1.3770 -2.9234 8.9092 8.7243 169.0883 13.5359 172.5609 -55.0509 -10.1635 -9.7527 15.7189 0.0000 0.0000 1.7332 0.0000 0.0000 0.6106 -1.1817 -6.8335 6.7966 0.0000 0.0000 1.5110 0.0000 0.0000 -10.9257 -0.8019 -3.5982 7.6948 0.0000 0.0000 1.0028 0.0000 0.0000 -18.6108 -1.1552 -5.2585 10.4931 0.0000 0.0000 2.3692 0.0000 0.0000 -25.9734 -1.4683 -6.0451 10.0600 0.0000 0.0000 3.9365 0.0000 0.0000 0.0000 0.0000 0.0000 0.0000 0.0000 0.0000 0.0000 0.0000 0.0000 0.0000 0.0000 0.0000 0.0000 0.0000 0.0000 0.0000 0.0000 0.0000
0.0000 95.0000 0.0000 0.0000 0.0000 0.0000 0.0000 0.0000 0.0000 0.0000 0.0000 0.0000 0.0000 0.0000 0.0000 0.0000 0.0000 0.0000 0.0000 0.0000 0.0000 0.0000 0.0000 0.0000 -79.2267 8.0345 9.7001 -4.6197 -2.6994 4.3127 -168.2697 36.6267 -182.9789 40.8243 -6.4292 9.0743 6.2222 0.0000 0.0000 3.1262 0.0000 0.0000 -6.0841 -0.2519 4.1231 3.7899 0.0000 0.0000 1.1541 0.0000 0.0000 5.4125 -0.3443 2.5024 4.0233 0.0000 0.0000 1.7998 0.0000 0.0000 13.4675 -0.6960 2.4385 2.0686 0.0000 0.0000 2.1041 0.0000 0.0000 21.9213 -1.3120 2.8000 1.6999 0.0000 0.0000 1.2173 0.0000 0.0000 0.0000 0.0000 0.0000 87.5418 -1.3069 1.3642 -2.8588 8.7997 8.6549 169.0038 13.4352 172.6578 -55.0509 -10.1635 -9.7527 15.7189 0.0000 0.0000 1.7332 0.0000 0.0000 0.6106 -1.1817 -6.8335 6.7966 0.0000 0.0000 1.5110 0.0000 0.0000 -10.9257 -0.8019 -3.5982 7.6948 0.0000 0.0000 1.0028 0.0000 0.0000 -18.6108 -1.1552 -5.2585 10.4931 0.0000 0.0000 2.3692 0.0000 0.0000 -25.9734 -1.4683 -6.0451 10.0600 0.0000 0.0000 3.9365 0.0000 0.0000 0.0000 0.0000 0.0000 0.0000 0.0000 0.0000 0.0000 0.0000 0.0000 0.0000 0.0000 0.0000 0.0000 0.0000 0.0000 0.0000 0.0000 0.0000
0.0000 95.0000 0.0000 0.0000 0.0000 0.0000 0.0000 0.0000 0.0000 0.0000 0.0000 0.0000 0.0000 0.0000 0.0000 0.0000 0.0000 0.0000 0.0000 0.0000 0.0000 0.0000 0.0000 0.0000 -78.9585 8.3478 10.1257 -4.7319 -2.6769 4.3622 -168.1342 36.2518 -183.2967 40.8243 -6.4292 9.0743 6.2222 0.0000 0.0000 3.1262 0.0000 0.0000 -6.0841 -0.2519 4.1231 3.7899 0.0000 0.0000 1.1541 0.0000 0.0000 5.4125 -0.3443 2.5024 4.0233 0.0000 0.0000 1.7998 0.0000 0.0000 13.4675 -0.6960 2.4385 2.0686 0.0000 0.0000 2.1041 0.0000 0.0000 21.9213 -1.3120 2.8000 1.6999 0.0000 0.0000 1.2173 0.0000 0.0000 0.0000 0.0000 0.0000 87.6851 -1.0710 1.1152 -3.0564 8.7841 8.6000 168.9840 13.1731 172.9490 -55.0509 -10.1635 -9.7527 15.7189 0.0000 0.0000 1.7332 0.0000 0.0000 0.6106 -1.1817 -6.8335 6.7966 0.0000 0.0000 1.5110 0.0000 0.0000 -10.9257 -0.8019 -3.5982 7.6948 0.0000 0.0000 1.0028 0.0000 0.0000 -18.6108 -1.1552 -5.2585 10.4931 0.0000 0.0000 2.3692 0.0000 0.0000 -25.9734 -1.4683 -6.0451 10.0600 0.0000 0.0000 3.9365 0.0000 0.0000 0.0000 0.0000 0.0000 0.0000 0.0000 0.0000 0.0000 0.0000 0.0000 0.0000 0.0000 0.0000 0.0000 0.0000 0.0000 0.0000 0.0000 0.0000
0.0000 95.0000 0.0000 0.0000 0.0000 0.0000 0.0000 0.0000 0.0000 0.0000 0.0000 0.0000 0.0000 0.0000 0.0000 0.0000 0.0000 0.0000 0.0000 0.0000 0.0000 0.0000 0.0000 0.0000 -78.5876 9.3078 11.3621 -5.2885 -3.1380 5.2402 -168.4166 34.5721 -185.3730 40.8243 -6.4292 9.0743 6.2222 0.0000 0.0000 3.1262 0.0000 0.0000 -6.0841 -0.2519 4.1231 3.7899 0.0000 0.0000 1.1541 0.0000 0.0000 5.4125 -0.3443 2.5024 4.0233 0.0000 0.0000 1.7998 0.0000 0.0000 13.4675 -0.6960 2.4385 2.0686 0.0000 0.0000 2.1041 0.0000 0.0000 21.9213 -1.3120 2.8000 1.6999 0.0000 0.0000 1.2173 0.0000 0.0000 0.0000 0.0000 0.0000 87.2638 -0.9347 0.9804 -2.4221 8.5970 8.5917 169.2419 12.9614 173.2339 -55.0509 -10.1635 -9.7527 15.7189 0.0000 0.0000 1.7332 0.0000 0.0000 0.6106 -1.1817 -6.8335 6.7966 0.0000 0.0000 1.5110 0.0000 0.0000 -10.9257 -0.8019 -3.5982 7.6948 0.0000 0.0000 1.0028 0.0000 0.0000 -18.6108 -1.1552 -5.2585 10.4931 0.0000 0.0000 2.3692 0.0000 0.0000 -25.9734 -1.4683 -6.0451 10.0600 0.0000 0.0000 3.9365 0.0000 0.0000 0.0000 0.0000 0.0000 0.0000 0.0000 0.0000 0.0000 0.0000 0.0000 0.0000 0.0000 0.0000 0.0000 0.0000 0.0000 0.0000 0.0000 0.0000
0.0000 95.0000 0.0000 0.0000 0.0000 0.0000 0.0000 0.0000 0.0000 0.0000 0.0000 0.0000 0.0000 0.0000 0.0000 0.0000 0.0000 0.0000 0.0000 0.0000 0.0000 0.0000 0.0000 0.0000 -78.6749 9.0695 11.0547 -4.9665 -2.9863 4.9176 -168.1337 35.0521 -184.6359 40.8243 -6.4292 9.0743 6.2222 0.0000 0.0000 3.1262 0.0000 0.0000 -6.0841 -0.2519 4.1231 3.7899 0.0000 0.0000 1.1541 0.0000 0.0000 5.4125 -0.3443 2.5024 4.0233 0.0000 0.0000 1.7998 0.0000 0.0000 13.4675 -0.6960 2.4385 2.0686 0.0000 0.0000 2.1041 0.0000 0.0000 21.9213 -1.3120 2.8000 1.6999 0.0000 0.0000 1.2173 0.0000 0.0000 0.0000 0.0000 0.0000 87.3572 -0.6209 0.6502 -2.5680 8.2986 8.2739 169.3005 12.3690 173.9069 -55.0509 -10.1635 -9.7527 15.7189 0.0000 0.0000 1.7332 0.0000 0.0000 0.6106 -1.1817 -6.8335 6.7966 0.0000 0.0000 1.5110 0.0000 0.0000 -10.9257 -0.8019 -3.5982 7.6948 0.0000 0.0000 1.0028 0.0000 0.0000 -18.6108 -1.1552 -5.2585 10.4931 0.0000 0.0000 2.3692 0.0000 0.0000 -25.9734 -1.4683 -6.0451 10.0600 0.0000 0.0000 3.9365 0.0000 0.0000 0.0000 0.0000 0.0000 0.0000 0.0000 0.0000 0.0000 0.0000 0.0000 0.0000 0.0000 0.0000 0.0000 0.0000 0.0000 0.0000 0.0000 0.0000
0.0000 95.0000 0.0000 0.0000 0.0000 0.0000 0.0000 0.0000 0.0000 0.0000 0.0000 0.0000 0.0000 0.0000 0.0000 0.0000 0.0000 0.0000 0.0000 0.0000 0.0000 0.0000 0.0000 0.0000 -79.1374 8.1881 9.9009 -4.4390 -2.8895 4.5308 -167.9353 36.2490 -183.1541 40.8243 -6.4292 9.0743 6.2222 0.0000 0.0000 3.1262 0.0000 0.0000 -6.0841 -0.2519 4.1231 3.7899 0.0000 0.0000 1.1541 0.0000 0.0000 5.4125 -0.3443 2.5024 4.0233 0.0000 0.0000 1.7998 0.0000 0.0000 13.4675 -0.6960 2.4385 2.0686 0.0000 0.0000 2.1041 0.0000 0.0000 21.9213 -1.3120 2.8000 1.6999 0.0000 0.0000 1.2173 0.0000 0.0000 0.0000 0.0000 0.0000 87.5090 -0.9309 0.9723 -2.8192 8.2770 8.1725 169.1844 12.6069 173.6207 -55.0509 -10.1635 -9.7527 15.7189 0.0000 0.0000 1.7332 0.0000 0.0000 0.6106 -1.1817 -6.8335 6.7966 0.0000 0.0000 1.5110 0.0000 0.0000 -10.9257 -0.8019 -3.5982 7.6948 0.0000 0.0000 1.0028 0.0000 0.0000 -18.6108 -1.1552 -5.2585 10.4931 0.0000 0.0000 2.3692 0.0000 0.0000 -25.9734 -1.4683 -6.0451 10.0600 0.0000 0.0000 3.9365 0.0000 0.0000 0.0000 0.0000 0.0000 0.0000 0.0000 0.0000 0.0000 0.0000 0.0000 0.0000 0.0000 0.0000 0.0000 0.0000 0.0000 0.0000 0.0000 0.0000
